# xmcd
#
# Track frame offsets: 
#        150
#        12922
#        27472
#        37372
#        49120
#        59432
#        77035
#        92157
#        109172
#        125437
#        138815
#        149735
#        164890
#
# Disc length: 2399 seconds
#
# Revision: 4
# Processed by: cddbd v1.5.2PL0 Copyright (c) Steve Scherf et al.
# Submitted via: ExactAudioCopy v0.95b4
#
DISCID=c2095d0d
DTITLE=Patty Loveless - Bluegrass and White Snow
DYEAR=2002
DGENRE=Christmas
TTITLE0=Away In A Manger
TTITLE1=Silent Night
TTITLE2=Joy To The World (Duet With Jon Randall)
TTITLE3=Carol Of The Bells (Instrumental)
TTITLE4=The First Noel
TTITLE5=Little Drummer Boy (Duet With Rebecca Lynn Howard)
TTITLE6=Silver Bells
TTITLE7=O Little Town Of Bethlehem
TTITLE8=Christmas Time's A Comin'
TTITLE9=Santa Train
TTITLE10=Christmas Day At My House
TTITLE11=Beautiful Star Of Bethlehem
TTITLE12=Bluegrass, White Snow
EXTD=
EXTT0=
EXTT1=
EXTT2=
EXTT3=
EXTT4=
EXTT5=
EXTT6=
EXTT7=
EXTT8=
EXTT9=
EXTT10=
EXTT11=
EXTT12=
PLAYORDER=
